<svg width="262" height="363" viewBox="0 0 262 363" fill="none" xmlns="http://www.w3.org/2000/svg">
<path fill-rule="evenodd" clip-rule="evenodd" d="M0 181.5C72.3493 181.5 131 100.24 131 0C131 100.24 189.651 181.5 262 181.5C189.651 181.5 131 262.76 131 363C131 262.76 72.3493 181.5 0 181.5Z" fill="#333333"/>
<path d="M129.5 0C129.5 49.8398 114.917 94.8996 91.4147 127.462C67.9109 160.026 35.5715 180 0 180V183C36.7778 183 69.9384 162.343 93.8473 129.218C117.758 96.0901 132.5 50.3999 132.5 0H129.5ZM262 180C226.429 180 194.089 160.026 170.585 127.462C147.083 94.8996 132.5 49.8398 132.5 0H129.5C129.5 50.3999 144.242 96.0901 168.153 129.218C192.062 162.343 225.222 183 262 183V180ZM132.5 363C132.5 313.16 147.083 268.1 170.585 235.538C194.089 202.974 226.429 183 262 183V180C225.222 180 192.062 200.657 168.153 233.782C144.242 266.91 129.5 312.6 129.5 363H132.5ZM0 183C35.5715 183 67.9109 202.974 91.4147 235.538C114.917 268.1 129.5 313.16 129.5 363H132.5C132.5 312.6 117.758 266.91 93.8473 233.782C69.9384 200.657 36.7778 180 0 180V183Z" fill="#333333"/>
</svg>
