<svg width="229" height="370" viewBox="0 0 229 370" fill="none" xmlns="http://www.w3.org/2000/svg">
<mask id="path-1-inside-1_41_75" fill="white">
<path fill-rule="evenodd" clip-rule="evenodd" d="M0 185C63.2366 185 114.5 102.173 114.5 0C114.5 102.173 165.763 185 229 185C165.763 185 114.5 267.827 114.5 370C114.5 267.827 63.2366 185 0 185Z"/>
</mask>
<path fill-rule="evenodd" clip-rule="evenodd" d="M0 185C63.2366 185 114.5 102.173 114.5 0C114.5 102.173 165.763 185 229 185C165.763 185 114.5 267.827 114.5 370C114.5 267.827 63.2366 185 0 185Z" fill="#E5EBED"/>
<path d="M111.5 0C111.5 50.6194 98.7952 96.3036 78.4128 129.236C58.0017 162.214 30.1964 182 0 182V188C33.0402 188 62.4849 166.372 83.5147 132.394C104.573 98.3691 117.5 51.5533 117.5 0H111.5ZM229 182C198.804 182 170.998 162.214 150.587 129.236C130.205 96.3036 117.5 50.6194 117.5 0H111.5C111.5 51.5533 124.427 98.3691 145.485 132.394C166.515 166.372 195.96 188 229 188V182ZM117.5 370C117.5 319.381 130.205 273.696 150.587 240.764C170.998 207.786 198.804 188 229 188V182C195.96 182 166.515 203.628 145.485 237.606C124.427 271.631 111.5 318.447 111.5 370H117.5ZM0 188C30.1964 188 58.0017 207.786 78.4128 240.764C98.7952 273.696 111.5 319.381 111.5 370H117.5C117.5 318.447 104.573 271.631 83.5147 237.606C62.4849 203.628 33.0402 182 0 182V188Z" fill="black" mask="url(#path-1-inside-1_41_75)"/>
</svg>
