<svg width="234" height="418" viewBox="0 0 234 418" fill="none" xmlns="http://www.w3.org/2000/svg">
<mask id="path-1-inside-1_41_87" fill="white">
<path fill-rule="evenodd" clip-rule="evenodd" d="M0 209C64.6173 209 117 115.428 117 0C117 115.428 169.383 209 234 209C169.383 209 117 302.572 117 418C117 302.572 64.6173 209 0 209Z"/>
</mask>
<path fill-rule="evenodd" clip-rule="evenodd" d="M0 209C64.6173 209 117 115.428 117 0C117 115.428 169.383 209 234 209C169.383 209 117 302.572 117 418C117 302.572 64.6173 209 0 209Z" fill="#E5EBED"/>
<path d="M114 0C114 57.2984 100.992 109.024 80.1138 146.32C59.1811 183.712 30.7361 206 0 206V212C33.8812 212 63.9362 187.501 85.3492 149.251C106.817 110.903 120 58.1291 120 0H114ZM234 206C203.264 206 174.819 183.712 153.886 146.32C133.008 109.024 120 57.2984 120 0H114C114 58.1291 127.183 110.903 148.651 149.251C170.064 187.501 200.119 212 234 212V206ZM120 418C120 360.702 133.008 308.976 153.886 271.68C174.819 234.288 203.264 212 234 212V206C200.119 206 170.064 230.499 148.651 268.749C127.183 307.097 114 359.871 114 418H120ZM0 212C30.7361 212 59.1811 234.288 80.1138 271.68C100.992 308.976 114 360.702 114 418H120C120 359.871 106.817 307.097 85.3492 268.749C63.9362 230.499 33.8812 206 0 206V212Z" fill="black" mask="url(#path-1-inside-1_41_87)"/>
</svg>
