<svg width="115" height="194" viewBox="0 0 115 194" fill="none" xmlns="http://www.w3.org/2000/svg">
<mask id="path-1-inside-1_41_81" fill="white">
<path fill-rule="evenodd" clip-rule="evenodd" d="M0 97C31.7564 97 57.5 53.5716 57.5 0C57.5 53.5716 83.2436 97 115 97C83.2436 97 57.5 140.428 57.5 194C57.5 140.428 31.7564 97 0 97Z"/>
</mask>
<path fill-rule="evenodd" clip-rule="evenodd" d="M0 97C31.7564 97 57.5 53.5716 57.5 0C57.5 53.5716 83.2436 97 115 97C83.2436 97 57.5 140.428 57.5 194C57.5 140.428 31.7564 97 0 97Z" fill="#E5EBED"/>
<path d="M54.5 0C54.5 26.3419 48.1645 50.0441 38.078 67.0596C27.9526 84.1406 14.3923 94 0 94V100C17.364 100 32.5537 88.1452 43.2393 70.1191C53.9637 52.0276 60.5 27.2297 60.5 0H54.5ZM115 94C100.608 94 87.0474 84.1406 76.922 67.0596C66.8355 50.0441 60.5 26.3419 60.5 0H54.5C54.5 27.2297 61.0363 52.0276 71.7607 70.1191C82.4463 88.1452 97.636 100 115 100V94ZM60.5 194C60.5 167.658 66.8355 143.956 76.922 126.94C87.0474 109.859 100.608 100 115 100V94C97.636 94 82.4463 105.855 71.7607 123.881C61.0363 141.972 54.5 166.77 54.5 194H60.5ZM0 100C14.3923 100 27.9526 109.859 38.078 126.94C48.1645 143.956 54.5 167.658 54.5 194H60.5C60.5 166.77 53.9637 141.972 43.2393 123.881C32.5537 105.855 17.364 94 0 94V100Z" fill="black" mask="url(#path-1-inside-1_41_81)"/>
</svg>
