<svg width="185" height="181" viewBox="0 0 185 181" fill="none" xmlns="http://www.w3.org/2000/svg">
<path d="M80.28 2.75C79.92 6.71 79.74 10.64 79.74 14.54V54.59C79.74 59.45 79.62 63.53 79.38 66.83C79.2 70.07 78.96 72.71 78.66 74.75C78.36 77.15 78 79.01 77.58 80.33H68.04C67.98 79.31 67.92 77.99 67.86 76.37C67.8 74.99 67.77 73.22 67.77 71.06C67.77 68.96 67.77 66.38 67.77 63.32V40.19H60.57V53.6C60.51 58.46 60.39 62.51 60.21 65.75C60.03 68.93 59.82 71.48 59.58 73.4C59.34 75.68 59.01 77.42 58.59 78.62H49.23C49.17 77.6 49.11 76.28 49.05 74.66C48.99 73.28 48.96 71.51 48.96 69.35C48.96 67.19 48.96 64.58 48.96 61.52V14.9C48.96 12.8 48.36 11.3 47.16 10.4C46.02 9.5 44.34 8.9 42.12 8.6L42.84 5.63L60.57 7.7V37.58H67.77V11.57C67.77 9.05 67.11 7.16 65.79 5.89999C64.47 4.58 62.4 3.74 59.58 3.38L60.3 0.409996L80.28 2.75ZM32.31 43.79C33.33 44.63 34.68 45.26 36.36 45.68C38.04 46.04 39.72 46.07 41.4 45.77L46.8 59.45L40.32 62.78L27.27 41.72C24.03 46.82 20.25 51.26 15.93 55.04C11.61 58.76 6.9 62.15 1.8 65.21L0.18 63.41C3.06 61.01 5.7 58.31 8.1 55.31C10.5 52.25 12.57 49.13 14.31 45.95C16.11 42.71 17.58 39.47 18.72 36.23C19.86 32.93 20.64 29.81 21.06 26.87C21.3 25.13 21.27 23.63 20.97 22.37C20.67 21.05 20.01 19.97 18.99 19.13C17.97 19.61 17.07 20.27 16.29 21.11C15.57 21.95 15.03 22.82 14.67 23.72C12.27 22.76 10.02 21.77 7.92 20.75C5.82 19.73 3.72 18.53 1.62 17.15L2.97 14.45C4.05 14.81 5.07 15.11 6.03 15.35C6.99 15.53 7.95 15.71 8.91 15.89C9.93 16.01 10.98 16.1 12.06 16.16C13.14 16.16 14.34 16.16 15.66 16.16C17.76 16.16 19.62 16.13 21.24 16.07C22.86 16.01 24.27 15.92 25.47 15.8C29.79 15.44 32.34 13.73 33.12 10.67L44.1 13.1L42.93 19.31C40.41 18.89 38.13 18.59 36.09 18.41C34.11 18.23 32.04 18.11 29.88 18.05H25.92L35.73 22.64C34.89 25.82 33.87 28.79 32.67 31.55C31.53 34.25 30.24 36.86 28.8 39.38C30.18 41.6 31.35 43.07 32.31 43.79ZM184.5 27.77L183.42 34.7L165.33 34.79C165.27 39.35 165.12 43.13 164.88 46.13C164.7 49.13 164.46 51.53 164.16 53.33C163.86 55.43 163.5 57.05 163.08 58.19H152.46C152.4 57.11 152.37 55.79 152.37 54.23C152.31 52.85 152.28 51.11 152.28 49.01C152.28 46.85 152.28 44.24 152.28 41.18V39.11C147.6 40.85 142.62 42.5 137.34 44.06C132.12 45.62 127.08 46.85 122.22 47.75C120.18 48.11 118.32 48.29 116.64 48.29C114.96 48.29 113.52 48.05 112.32 47.57C111.12 47.09 110.19 46.31 109.53 45.23C108.87 44.15 108.54 42.74 108.54 41V20.12C108.54 17.6 107.91 15.92 106.65 15.08C105.39 14.18 103.17 13.58 99.99 13.28L100.44 10.31L121.68 11.57V41.54C121.68 42.68 121.95 43.4 122.49 43.7C123.03 44 123.72 44.09 124.56 43.97C126.12 43.79 128.1 43.46 130.5 42.98C132.9 42.44 135.39 41.84 137.97 41.18C140.61 40.46 143.19 39.71 145.71 38.93C148.23 38.15 150.42 37.4 152.28 36.68V10.22C152.28 8.96 152.01 7.94 151.47 7.15999C150.93 6.38 150.21 5.75 149.31 5.27C148.47 4.73 147.51 4.34 146.43 4.1C145.41 3.86 144.39 3.65 143.37 3.47L144.09 0.499995L165.87 3.11C165.51 7.07 165.33 10.97 165.33 14.81V32.09C167.07 31.85 168.57 31.34 169.83 30.56C171.15 29.72 172.05 28.31 172.53 26.33L184.5 27.77ZM152.73 75.11C154.11 74.81 155.37 74.12 156.51 73.04C157.71 72.02 158.43 70.61 158.67 68.81L172.44 70.61L171.45 77.45C165.93 77.51 160.56 77.57 155.34 77.63C153.06 77.63 150.72 77.63 148.32 77.63C145.92 77.69 143.55 77.72 141.21 77.72C138.87 77.78 136.62 77.81 134.46 77.81C132.3 77.81 130.32 77.81 128.52 77.81C127.32 77.81 126.12 77.75 124.92 77.63C123.72 77.51 122.64 77.21 121.68 76.73C120.78 76.31 120.03 75.62 119.43 74.66C118.89 73.76 118.62 72.5 118.62 70.88V63.14C118.62 62.06 118.41 61.19 117.99 60.53C117.57 59.81 117 59.27 116.28 58.91C115.56 58.49 114.72 58.22 113.76 58.1C112.8 57.92 111.81 57.83 110.79 57.83L111.15 54.77L131.76 55.13C131.64 56.33 131.58 57.92 131.58 59.9C131.58 61.88 131.58 63.83 131.58 65.75V72.86C131.58 74.06 131.88 74.81 132.48 75.11C133.14 75.47 134.16 75.68 135.54 75.74C136.5 75.74 137.79 75.74 139.41 75.74C141.09 75.74 142.8 75.71 144.54 75.65C146.34 75.65 147.99 75.59 149.49 75.47C150.99 75.41 152.07 75.29 152.73 75.11ZM90 124.62L89.01 131.55L70.83 131.64C70.71 135.18 70.56 138.03 70.38 140.19C70.2 142.35 70.02 144.03 69.84 145.23C69.6 146.67 69.36 147.66 69.12 148.2H57.96C57.9 147.3 57.87 146.16 57.87 144.78C57.81 143.58 57.78 142.11 57.78 140.37C57.78 138.57 57.78 136.44 57.78 133.98V110.31C57.78 109.05 57.51 108.03 56.97 107.25C56.43 106.41 55.74 105.75 54.9 105.27C54.06 104.73 53.1 104.34 52.02 104.1C51 103.86 49.98 103.65 48.96 103.47L49.59 100.5L71.37 103.11C71.01 107.07 70.83 111 70.83 114.9V128.94C72.57 128.7 74.07 128.19 75.33 127.41C76.65 126.57 77.55 125.16 78.03 123.18L90 124.62ZM28.89 111.12C27.57 111.24 26.37 111.45 25.29 111.75C24.27 112.05 23.43 112.38 22.77 112.74C20.13 111.36 17.7 109.68 15.48 107.7L16.92 105.36C17.94 105.66 19.08 105.9 20.34 106.08C21.66 106.2 22.95 106.29 24.21 106.35C25.53 106.41 26.73 106.44 27.81 106.44C28.95 106.44 29.82 106.44 30.42 106.44C31.44 106.44 32.85 106.41 34.65 106.35C36.51 106.29 38.37 106.2 40.23 106.08L39.33 111.39C38.55 111.33 37.68 111.27 36.72 111.21C35.76 111.15 34.8 111.12 33.84 111.12C32.88 111.06 31.95 111.03 31.05 111.03C30.21 111.03 29.49 111.06 28.89 111.12ZM21.69 120.03C20.13 120.15 18.78 120.72 17.64 121.74C16.56 122.76 15.81 123.69 15.39 124.53C14.31 124.23 13.14 123.84 11.88 123.36C10.68 122.88 9.45 122.37 8.19 121.83C6.99 121.23 5.82 120.63 4.68 120.03C3.54 119.43 2.55 118.86 1.71 118.32L3.15 115.62C4.89 116.22 6.87 116.7 9.09 117.06C11.31 117.42 13.8 117.63 16.56 117.69C17.94 117.69 19.53 117.69 21.33 117.69C23.13 117.69 24.99 117.66 26.91 117.6C28.83 117.54 30.75 117.48 32.67 117.42C34.59 117.3 36.36 117.18 37.98 117.06C39.36 116.94 40.53 116.64 41.49 116.16C42.51 115.68 43.2 114.81 43.56 113.55L54 115.53L53.19 120.3C51.09 120.06 48.93 119.88 46.71 119.76C44.49 119.58 42.69 119.49 41.31 119.49C39.93 119.49 38.34 119.49 36.54 119.49C34.8 119.49 33.03 119.52 31.23 119.58C29.43 119.64 27.69 119.7 26.01 119.76C24.33 119.82 22.89 119.91 21.69 120.03ZM49.77 136.77C49.77 140.55 48.09 143.55 44.73 145.77C41.43 147.99 36.78 149.1 30.78 149.1C24.78 149.1 20.1 147.99 16.74 145.77C13.38 143.55 11.73 140.55 11.79 136.77C11.85 132.99 13.53 130.05 16.83 127.95C20.13 125.79 24.78 124.71 30.78 124.71C36.84 124.71 41.52 125.79 44.82 127.95C48.12 130.05 49.77 132.99 49.77 136.77ZM23.04 136.77C23.04 139.83 23.64 142.32 24.84 144.24C26.1 146.16 28.08 147.12 30.78 147.12C33.54 147.12 35.49 146.16 36.63 144.24C37.83 142.32 38.46 139.83 38.52 136.77C38.58 133.83 37.98 131.43 36.72 129.57C35.52 127.71 33.54 126.78 30.78 126.78C28.08 126.78 26.1 127.71 24.84 129.57C23.64 131.43 23.04 133.83 23.04 136.77ZM54.54 155.4C55.5 155.34 56.4 155.1 57.24 154.68C58.08 154.2 58.8 153.33 59.4 152.07L71.64 155.04C71.46 156 71.28 156.93 71.1 157.83C70.98 158.73 70.89 159.72 70.83 160.8V166.47C70.83 168.93 70.74 171.03 70.56 172.77C70.38 174.51 70.17 175.92 69.93 177C69.69 178.14 69.48 178.98 69.3 179.52C69.18 180.06 69.12 180.33 69.12 180.33H58.05C57.99 179.43 57.93 178.38 57.87 177.18C57.81 176.16 57.78 174.87 57.78 173.31C57.78 171.81 57.78 170.07 57.78 168.09V157.38L40.05 157.74C38.73 157.74 37.59 157.95 36.63 158.37C35.73 158.79 34.98 159.3 34.38 159.9C33.78 160.44 33.3 161.01 32.94 161.61C32.58 162.15 32.31 162.6 32.13 162.96C30.81 162.6 29.4 162.18 27.9 161.7C26.4 161.16 24.93 160.59 23.49 159.99C22.05 159.33 20.64 158.67 19.26 158.01C17.94 157.35 16.8 156.69 15.84 156.03L17.37 153.24C19.65 153.96 22.29 154.56 25.29 155.04C28.35 155.52 31.65 155.76 35.19 155.76C36.39 155.76 37.86 155.76 39.6 155.76C41.34 155.76 43.11 155.76 44.91 155.76C46.77 155.7 48.54 155.64 50.22 155.58C51.9 155.52 53.34 155.46 54.54 155.4ZM132.48 115.44C131.16 115.5 130.02 115.74 129.06 116.16C128.16 116.58 127.41 117.09 126.81 117.69C126.21 118.23 125.73 118.77 125.37 119.31C125.01 119.85 124.74 120.3 124.56 120.66C123.24 120.3 121.83 119.88 120.33 119.4C118.89 118.86 117.45 118.29 116.01 117.69C114.57 117.03 113.19 116.37 111.87 115.71C110.55 114.99 109.35 114.3 108.27 113.64L109.71 110.94C112.05 111.66 114.72 112.23 117.72 112.65C120.78 113.07 124.05 113.31 127.53 113.37C128.97 113.37 131.07 113.34 133.83 113.28C136.59 113.22 139.47 113.16 142.47 113.1C145.53 113.04 148.44 112.98 151.2 112.92C153.96 112.8 156.03 112.71 157.41 112.65C158.31 112.59 159.27 112.38 160.29 112.02C161.31 111.6 162.12 110.91 162.72 109.95L175.86 113.64C174.48 120.84 172.98 127.56 171.36 133.8C169.74 140.04 167.88 146.07 165.78 151.89L155.88 150.18C156.42 147.42 156.93 144.48 157.41 141.36C157.89 138.24 158.31 135.12 158.67 132C159.09 128.82 159.42 125.76 159.66 122.82C159.96 119.88 160.17 117.18 160.29 114.72C155.73 114.78 151.56 114.87 147.78 114.99C146.16 115.05 144.54 115.11 142.92 115.17C141.3 115.17 139.8 115.2 138.42 115.26C137.04 115.32 135.81 115.38 134.73 115.44C133.71 115.44 132.96 115.44 132.48 115.44ZM182.97 161.34L181.89 168.18C179.01 167.88 176.07 167.64 173.07 167.46C170.07 167.28 167.13 167.19 164.25 167.19C161.25 167.19 158.01 167.22 154.53 167.28C151.05 167.34 147.54 167.4 144 167.46C140.52 167.52 137.1 167.61 133.74 167.73C130.44 167.85 127.47 167.94 124.83 168C123.33 168.06 122.07 168.27 121.05 168.63C120.03 169.05 119.16 169.56 118.44 170.16C117.78 170.76 117.24 171.42 116.82 172.14C116.4 172.86 116.01 173.52 115.65 174.12C114.27 173.76 112.68 173.28 110.88 172.68C109.08 172.08 107.28 171.39 105.48 170.61C103.68 169.83 101.94 169.02 100.26 168.18C98.64 167.34 97.26 166.56 96.12 165.84L97.56 163.05C98.64 163.41 99.93 163.77 101.43 164.13C102.99 164.43 104.58 164.7 106.2 164.94C107.82 165.18 109.41 165.39 110.97 165.57C112.59 165.75 114.06 165.84 115.38 165.84H120.78V144.96C120.78 143.22 120.3 142.02 119.34 141.36C118.38 140.64 116.73 140.28 114.39 140.28L114.75 137.4L132.93 137.94V165.57L140.49 165.39V141.72C140.49 139.98 140.1 138.75 139.32 138.03C138.6 137.31 137.22 136.89 135.18 136.77L135.72 133.89L153.36 135.33L152.28 165.03L159.84 164.76C161.88 164.64 163.56 164.07 164.88 163.05C166.2 161.97 167.07 160.65 167.49 159.09L182.97 161.34Z" fill="#F0EAE0"/>
</svg>
