<svg width="427" height="543" viewBox="0 0 427 543" fill="none" xmlns="http://www.w3.org/2000/svg">
<path d="M426.638 255.566C426.83 259.785 426.947 264.031 426.985 268.3L425.486 268.313C425.495 269.374 425.5 270.436 425.5 271.5C425.5 272.564 425.495 273.626 425.486 274.687L426.985 274.7C426.908 283.284 426.516 291.772 425.826 300.147L424.331 300.023C423.805 306.402 423.104 312.714 422.236 318.952L423.722 319.158C423.133 323.388 422.467 327.584 421.726 331.744L420.249 331.481C419.878 333.564 419.487 335.639 419.079 337.704L420.55 337.995C418.882 346.421 416.904 354.691 414.633 362.783L413.189 362.378C411.46 368.537 409.56 374.592 407.498 380.535L408.915 381.027C407.514 385.063 406.038 389.047 404.489 392.977L403.094 392.427C402.317 394.397 401.522 396.354 400.71 398.296L402.093 398.876C398.775 406.804 395.157 414.498 391.257 421.934L389.929 421.238C386.957 426.905 383.822 432.421 380.532 437.774L381.809 438.559C379.571 442.2 377.262 445.767 374.884 449.256L373.644 448.411C372.454 450.157 371.246 451.884 370.021 453.591L371.239 454.465C366.223 461.455 360.923 468.111 355.363 474.402L354.239 473.408C350.008 478.195 345.627 482.769 341.105 487.117L342.145 488.198C339.066 491.158 335.922 494.015 332.717 496.764L331.74 495.625C330.131 497.005 328.507 498.357 326.868 499.681L327.81 500.848C321.136 506.238 314.211 511.171 307.061 515.61L306.27 514.336C300.866 517.691 295.335 520.762 289.688 523.534L290.348 524.881C286.526 526.756 282.651 528.497 278.726 530.096L278.16 528.707C276.208 529.503 274.244 530.263 272.267 530.988L272.784 532.396C264.807 535.322 256.638 537.673 248.306 539.41L248 537.942C241.845 539.225 235.6 540.171 229.279 540.763L229.419 542.257C225.212 542.651 220.97 542.89 216.698 542.97L216.67 541.47C215.615 541.49 214.559 541.5 213.5 541.5C212.441 541.5 211.385 541.49 210.33 541.47L210.302 542.97C201.72 542.81 193.26 542.006 184.952 540.594L185.203 539.115C178.959 538.054 172.801 536.647 166.74 534.908L166.327 536.35C162.244 535.179 158.206 533.86 154.216 532.396L154.733 530.988C152.757 530.263 150.792 529.503 148.84 528.707L148.274 530.096C140.446 526.906 132.815 523.157 125.41 518.886L126.16 517.587C120.716 514.447 115.395 511.023 110.207 507.329L109.337 508.55C105.895 506.099 102.511 503.53 99.19 500.848L100.132 499.681C98.493 498.357 96.8687 497.005 95.2599 495.625L94.2835 496.764C87.9094 491.298 81.7798 485.406 75.92 479.12L77.0172 478.097C72.7375 473.507 68.6019 468.704 64.6205 463.701L63.4468 464.635C60.8166 461.33 58.2536 457.939 55.7606 454.465L56.9792 453.591C55.7544 451.884 54.5465 450.157 53.3558 448.411L52.1164 449.256C47.3883 442.32 42.9321 435.077 38.7688 427.552L40.0813 426.826C37.0388 421.327 34.1532 415.676 31.433 409.885L30.0753 410.523C28.2799 406.7 26.5562 402.817 24.9068 398.876L26.2905 398.296C25.4775 396.354 24.6826 394.397 23.9061 392.427L22.5106 392.977C19.4305 385.161 16.6384 377.13 14.1519 368.906L15.5877 368.472C13.7667 362.449 12.1103 356.322 10.6255 350.099L9.16643 350.447C8.18566 346.337 7.27948 342.185 6.44991 337.995L7.92135 337.704C7.51255 335.639 7.12243 333.564 6.75122 331.481L5.27448 331.744C3.80018 323.468 2.62312 315.05 1.75831 306.507L3.25069 306.355C2.6165 300.091 2.15095 293.758 1.86004 287.366L0.361593 287.434C0.169562 283.215 0.053305 278.969 0.0145284 274.7L1.51447 274.687C1.50483 273.626 1.5 272.564 1.5 271.5C1.5 270.436 1.50483 269.374 1.51447 268.313L0.0145281 268.3C0.0924953 259.716 0.483705 251.228 1.1743 242.853L2.66923 242.977C3.1952 236.598 3.89557 230.286 4.76415 224.048L3.27848 223.842C3.86744 219.612 4.53341 215.416 5.27447 211.256L6.75122 211.519C7.12242 209.436 7.51254 207.361 7.92134 205.296L6.4499 205.005C8.11807 196.579 10.096 188.309 12.3673 180.217L13.8115 180.622C15.5402 174.463 17.4395 168.408 19.5022 162.465L18.0851 161.973C19.486 157.937 20.9619 153.953 22.5106 150.023L23.9061 150.573C24.6826 148.603 25.4775 146.646 26.2905 144.704L24.9068 144.124C28.225 136.196 31.8433 128.502 35.7425 121.066L37.0709 121.762C40.0427 116.095 43.1781 110.58 46.4684 105.226L45.1905 104.441C47.4286 100.8 49.7381 97.2331 52.1164 93.7444L53.3558 94.5893C54.5465 92.8427 55.7544 91.1159 56.9792 89.4092L55.7606 88.5347C60.7771 81.5447 66.0771 74.8895 71.6374 68.5982L72.7613 69.5916C76.9919 64.8048 81.3733 60.2311 85.8951 55.8832L84.8555 54.8019C87.9342 51.8417 91.0779 48.9852 94.2834 46.2363L95.2599 47.375C96.8686 45.9955 98.493 44.6434 100.132 43.3192L99.1899 42.1523C105.864 36.7617 112.789 31.8293 119.939 27.3898L120.73 28.6641C126.134 25.3086 131.665 22.2375 137.312 19.466L136.652 18.1194C140.474 16.2435 144.349 14.5035 148.274 12.9039L148.84 14.293C150.792 13.4973 152.756 12.7368 154.733 12.0119L154.216 10.6037C162.193 7.67757 170.363 5.32709 178.694 3.58991L179 5.05833C185.155 3.77492 191.4 2.82928 197.721 2.23677L197.581 0.743315C201.788 0.348929 206.03 0.109613 210.302 0.0298431L210.33 1.52958C211.385 1.50988 212.441 1.5 213.5 1.5C214.559 1.5 215.615 1.50988 216.67 1.52958L216.698 0.0298423C225.28 0.190099 233.74 0.994305 242.048 2.40616L241.797 3.88496C248.041 4.94601 254.199 6.35339 260.26 8.09157L260.673 6.6497C264.756 7.82054 268.794 9.14011 272.784 10.6037L272.267 12.0119C274.243 12.7368 276.208 13.4973 278.16 14.2929L278.726 12.9039C286.554 16.0941 294.185 19.8431 301.59 24.1141L300.84 25.4134C306.284 28.5528 311.605 31.9769 316.793 35.6714L317.663 34.4495C321.105 36.9008 324.489 39.4698 327.81 42.1522L326.868 43.3191C328.507 44.6433 330.131 45.9954 331.74 47.375L332.717 46.2363C339.091 51.7022 345.22 57.5941 351.08 63.8798L349.983 64.9027C354.262 69.4934 358.398 74.2964 362.38 79.2991L363.553 78.3651C366.183 81.6699 368.746 85.0609 371.239 88.5346L370.021 89.4092C371.246 91.1159 372.454 92.8427 373.644 94.5892L374.884 93.7443C379.612 100.68 384.068 107.924 388.231 115.448L386.919 116.174C389.961 121.673 392.847 127.324 395.567 133.115L396.925 132.477C398.72 136.3 400.444 140.183 402.093 144.124L400.71 144.704C401.522 146.646 402.317 148.603 403.094 150.573L404.489 150.023C407.569 157.839 410.362 165.87 412.848 174.094L411.412 174.528C413.233 180.551 414.89 186.678 416.375 192.901L417.834 192.553C418.814 196.663 419.72 200.815 420.55 205.005L419.079 205.296C419.487 207.361 419.878 209.436 420.249 211.519L421.726 211.256C423.2 219.532 424.377 227.95 425.242 236.493L423.749 236.645C424.383 242.909 424.849 249.242 425.14 255.634L426.638 255.566Z" stroke="black" stroke-width="3" stroke-dasharray="6 12 18 24"/>
</svg>
