<svg width="480" height="300" viewBox="0 0 480 300" fill="none" xmlns="http://www.w3.org/2000/svg">
<path d="M107.2 0.839993L105.92 6.11999C115.84 7.39999 120.48 11.72 120.48 20.68V66.92H107.68V13.8L76.16 10.12L74.88 15.4C82.72 16.52 87.04 19.24 87.04 26.6V109.48C87.04 131.08 87.52 139.88 87.52 139.88H104.16C104.16 139.88 107.52 129.8 107.68 95.4V71.56H120.48V112.68C120.48 134.12 120.96 142.92 120.96 142.92H137.92C137.92 142.92 141.76 131.56 141.76 97.16V25.96C141.76 19.24 142.08 12.04 142.72 5L107.2 0.839993ZM57.44 77.96C55.52 76.52 53.6 73.96 51.2 70.12C56.32 61.32 60.48 51.56 63.52 40.36L46.08 32.2H53.12C60.8 32.36 67.36 33 76.32 34.44L78.4 23.4L58.88 19.08C57.44 24.68 52.96 27.56 45.28 28.2C40.96 28.52 35.36 28.84 27.84 28.84C18.4 28.84 13.12 28.36 5.28 25.8L2.88 30.6C10.4 35.4 17.6 38.92 26.08 42.28C27.36 39.08 30.24 35.88 33.76 34.12C37.44 37.16 38.24 41.64 37.44 47.88C34.56 68.84 20.96 95.56 0.32 112.84L3.2 116.04C21.12 105.32 36.96 92.2 48.48 74.28L71.68 111.72L83.2 105.8L73.6 81.48C67.68 82.6 61.12 80.84 57.44 77.96ZM258.56 0.99999L257.28 6.28C264.48 7.39999 272.96 9.48 272.96 18.44V112.68C272.96 134.12 273.44 142.92 273.44 142.92H292.32C292.32 142.92 296 131.56 296.16 97.16V26.6C296.16 19.88 296.48 12.68 297.12 5.64L258.56 0.99999ZM252.48 27.88L230.08 23.4C228.32 26.76 225.12 28.68 220.16 29C218.08 29.16 208.8 29.32 204.16 29.48L201.92 27.72L170.24 25.8L169.44 31.08C174.24 31.08 181.28 32.52 181.6 40.84L184.32 109.8H202.24C203.36 107.4 204.32 104.2 204.8 101.48V101.32L253.12 100.52L254.4 94.12L248.16 92.68L252.48 27.88ZM204.8 97.8V33.16L227.36 32.68V93.96C227.52 95.88 226.56 97.32 223.52 97.48L204.8 97.8ZM458.72 46.92C456.96 53.96 452 56.36 445.92 57.16V26.44C445.92 19.72 446.24 12.68 446.88 5.64L408.16 0.99999L406.88 6.28C414.24 7.39999 422.72 9.48 422.72 18.28V65.32C409.44 70.28 384.64 77.16 373.44 78.28C370.56 78.6 368.32 77.96 368.32 73.96V20.68L330.56 18.44L329.76 23.72C340.96 24.84 344.96 26.92 344.96 35.88V73C344.96 85.48 354.72 87.72 369.28 85C386.4 81.8 406.24 75.88 422.72 69.64V73.32C422.72 94.92 423.04 103.56 423.04 103.56H441.92C441.92 103.56 445.6 94.28 445.92 61.96L478.08 61.8L480 49.48L458.72 46.92ZM423.52 133.64C418.88 134.76 399.68 134.92 392.96 134.76C388 134.6 385.92 133.8 385.92 129.64C385.92 129.64 385.76 106.28 386.24 98.12L349.6 97.48L348.96 102.92C356.32 102.92 362.88 104.68 362.88 112.36V126.12C362.88 137.64 371.84 138.44 380.48 138.44C405.76 138.44 456.8 137.8 456.8 137.8L458.56 125.64L434.08 122.44C433.28 128.84 428.32 132.52 423.52 133.64ZM147.52 187.56C154.24 187.24 196.96 186.28 196.96 186.28C196 203.56 192.96 229.64 189.12 249.32L206.72 252.36C214.08 231.88 219.84 209.8 224.64 184.36L201.28 177.8C199.2 181.16 195.04 182.44 191.84 182.6C181.92 183.08 148.96 183.88 138.72 183.88C126.4 183.72 115.36 182.12 107.04 179.56L104.48 184.36C112.16 189.16 124 194.28 133.44 196.84C134.88 194.44 138.08 188.04 147.52 187.56ZM209.76 265.16C208.32 270.76 203.36 274.92 196.16 275.24L182.72 275.72L184.64 222.92L153.28 220.36L152.32 225.48C159.52 225.8 161.76 228.2 161.76 234.28V276.36L148.32 276.68V227.56L116 226.6L115.36 231.72C123.68 231.72 126.72 233.96 126.72 240.04V277.16H117.12C107.84 277 93.28 274.76 85.44 272.2L82.88 277.16C91.04 282.44 107.68 289.48 117.6 291.88C120 287.4 123.36 281.32 133.92 281C152.8 280.36 182.72 279.56 204 279.56C214.08 279.56 225.12 280.2 235.36 281.32L237.28 269.16L209.76 265.16ZM352.96 210.12C352.96 227.24 353.44 235.56 353.44 235.56H373.12C373.12 235.56 376 230.28 376.16 204.36V186.44C376.16 179.72 376.48 172.68 377.12 165.64L338.4 161L337.28 166.28C344.48 167.4 352.96 169.48 352.96 178.28V210.12ZM327.68 238.76L338.24 231.56L326.72 211.24C320.96 212.68 314.08 212.2 310.08 209.64C308.64 208.84 307.04 207.08 305.12 205C309.92 198.12 313.92 190.28 316.64 181.16L279.04 170.92L277.28 176.04C284.48 178.12 288.96 180.36 287.84 188.04C285.28 205.96 270.08 225.8 246.24 240.2L248.64 243.4C269.92 235.4 289.28 225.32 302.56 208.52L327.68 238.76ZM386.72 285.32L362.24 282.28C361.28 287.72 357.28 293.32 352 293.96C342.4 295.08 328.32 295.4 321.44 295.4C315.68 295.4 314.4 294.28 314.4 290.12V273.8L378.24 272.52L379.52 265.96L374.24 264.84L377.6 245.32L356.64 241.32C354.56 244.52 350.56 245.8 347.2 245.96C337.6 246.44 323.04 246.76 311.68 246.76C301.12 246.76 291.2 246.6 282.72 244.52L281.12 248.52C288.16 252.2 297.28 256.04 305.12 258.12C306.72 254.92 310.08 250.92 317.28 250.44C322.56 250.12 352.96 249.8 352.96 249.8L353.12 265.32C353.12 268.36 351.84 269.16 348.8 269.32C343.68 269.64 325.6 269.96 320.8 269.96C315.36 269.96 311.84 268.84 310.72 267.56L281.12 265.96L280.32 270.76C286.08 270.92 291.2 273.16 291.2 280.2V287.56C291.2 298.92 300.32 299.08 308.96 299.08C333.92 299.08 385.12 297.48 384.96 297.48L386.72 285.32Z" fill="black"/>
</svg>
