<svg width="192" height="257" viewBox="0 0 192 257" fill="none" xmlns="http://www.w3.org/2000/svg">
<path fill-rule="evenodd" clip-rule="evenodd" d="M0 128.5C52.8917 128.5 95.7689 70.9686 95.7689 0C95.7689 70.9686 138.646 128.5 191.538 128.5C138.646 128.5 95.7689 186.031 95.7689 257C95.7689 186.031 52.8917 128.5 0 128.5Z" fill="#E5EBED"/>
<path d="M94.2689 0C94.2689 35.1933 83.6355 66.9965 66.5161 89.9669C49.3967 112.937 25.8638 127 0 127V130C27.0279 130 51.3794 115.297 68.9215 91.7596C86.4636 68.2221 97.2689 35.7753 97.2689 0H94.2689ZM191.538 127C165.674 127 142.141 112.937 125.022 89.9669C107.902 66.9965 97.2689 35.1933 97.2689 0H94.2689C94.2689 35.7753 105.074 68.2221 122.616 91.7596C140.158 115.297 164.51 130 191.538 130V127ZM97.2689 257C97.2689 221.807 107.902 190.004 125.022 167.033C142.141 144.063 165.674 130 191.538 130V127C164.51 127 140.158 141.703 122.616 165.24C105.074 188.778 94.2689 221.225 94.2689 257H97.2689ZM0 130C25.8638 130 49.3967 144.063 66.5161 167.033C83.6355 190.004 94.2689 221.807 94.2689 257H97.2689C97.2689 221.225 86.4636 188.778 68.9215 165.24C51.3794 141.703 27.0279 127 0 127V130Z" fill="#333333"/>
</svg>
