<svg width="111" height="179" viewBox="0 0 111 179" fill="none" xmlns="http://www.w3.org/2000/svg">
<mask id="path-1-inside-1_41_235" fill="white">
<path fill-rule="evenodd" clip-rule="evenodd" d="M0 89.5C30.6518 89.5 55.5 49.4295 55.5 0C55.5 49.4295 80.3482 89.5 111 89.5C80.3482 89.5 55.5 129.571 55.5 179C55.5 129.571 30.6518 89.5 0 89.5Z"/>
</mask>
<path fill-rule="evenodd" clip-rule="evenodd" d="M0 89.5C30.6518 89.5 55.5 49.4295 55.5 0C55.5 49.4295 80.3482 89.5 111 89.5C80.3482 89.5 55.5 129.571 55.5 179C55.5 129.571 30.6518 89.5 0 89.5Z" fill="#F0EAE0"/>
<path d="M52.5 0C52.5 24.2468 46.3996 46.0551 36.6948 61.705C26.962 77.4004 13.9068 86.5 0 86.5V92.5C16.745 92.5 31.4398 81.5644 41.794 64.8671C52.1763 48.1244 58.5 25.1827 58.5 0H52.5ZM111 86.5C97.0932 86.5 84.038 77.4004 74.3052 61.705C64.6004 46.0551 58.5 24.2468 58.5 0H52.5C52.5 25.1827 58.8237 48.1244 69.206 64.8671C79.5602 81.5644 94.255 92.5 111 92.5V86.5ZM58.5 179C58.5 154.753 64.6004 132.945 74.3052 117.295C84.038 101.6 97.0932 92.5 111 92.5V86.5C94.255 86.5 79.5602 97.4356 69.206 114.133C58.8237 130.876 52.5 153.817 52.5 179H58.5ZM0 92.5C13.9068 92.5 26.962 101.6 36.6948 117.295C46.3996 132.945 52.5 154.753 52.5 179H58.5C58.5 153.817 52.1763 130.876 41.794 114.133C31.4398 97.4356 16.745 86.5 0 86.5V92.5Z" fill="black" mask="url(#path-1-inside-1_41_235)"/>
</svg>
