<svg width="273" height="366" viewBox="0 0 273 366" fill="none" xmlns="http://www.w3.org/2000/svg">
<path fill-rule="evenodd" clip-rule="evenodd" d="M0.342285 183C75.6346 183 136.671 101.068 136.671 0C136.671 101.068 197.708 183 273 183C197.708 183 136.671 264.932 136.671 366C136.671 264.932 75.6346 183 0.342285 183Z" fill="#E5EBED"/>
<path d="M135.171 0C135.171 50.2432 119.998 95.6715 95.5384 128.504C71.0791 161.337 37.4061 181.5 0.342285 181.5V184.5C38.5708 184.5 73.0623 163.697 97.9442 130.297C122.826 96.8966 138.171 50.8249 138.171 0H135.171ZM273 181.5C235.936 181.5 202.263 161.337 177.804 128.504C153.344 95.6715 138.171 50.2432 138.171 0H135.171C135.171 50.8249 150.516 96.8966 175.398 130.297C200.28 163.697 234.771 184.5 273 184.5V181.5ZM138.171 366C138.171 315.757 153.344 270.329 177.804 237.496C202.263 204.663 235.936 184.5 273 184.5V181.5C234.771 181.5 200.28 202.303 175.398 235.703C150.516 269.103 135.171 315.175 135.171 366H138.171ZM0.342285 184.5C37.4061 184.5 71.0791 204.663 95.5384 237.496C119.998 270.329 135.171 315.757 135.171 366H138.171C138.171 315.175 122.826 269.103 97.9442 235.703C73.0623 202.303 38.5708 181.5 0.342285 181.5V184.5Z" fill="#333333"/>
</svg>
