<svg width="111" height="179" viewBox="0 0 111 179" fill="none" xmlns="http://www.w3.org/2000/svg">
<mask id="path-1-inside-1_58_95" fill="white">
<path fill-rule="evenodd" clip-rule="evenodd" d="M0.000244141 89.5C30.652 89.5 55.5002 49.4295 55.5002 0C55.5002 49.4295 80.3484 89.5 111 89.5C80.3484 89.5 55.5002 129.571 55.5002 179C55.5002 129.571 30.652 89.5 0.000244141 89.5Z"/>
</mask>
<path fill-rule="evenodd" clip-rule="evenodd" d="M0.000244141 89.5C30.652 89.5 55.5002 49.4295 55.5002 0C55.5002 49.4295 80.3484 89.5 111 89.5C80.3484 89.5 55.5002 129.571 55.5002 179C55.5002 129.571 30.652 89.5 0.000244141 89.5Z" fill="#F0EAE0"/>
<path d="M51.5002 0C51.5002 24.0908 45.437 45.7102 35.8452 61.178C26.2159 76.7064 13.434 85.5 0.000244141 85.5V93.5C17.2183 93.5 32.1864 82.2584 42.6441 65.3941C53.1394 48.4693 59.5002 25.3387 59.5002 0H51.5002ZM111 85.5C97.5665 85.5 84.7846 76.7064 75.1553 61.178C65.5635 45.7102 59.5002 24.0908 59.5002 0H51.5002C51.5002 25.3387 57.8611 48.4693 68.3564 65.3941C78.8141 82.2584 93.7822 93.5 111 93.5V85.5ZM59.5002 179C59.5002 154.909 65.5635 133.29 75.1553 117.822C84.7846 102.294 97.5665 93.5 111 93.5V85.5C93.7822 85.5 78.8141 96.7416 68.3564 113.606C57.8611 130.531 51.5002 153.661 51.5002 179H59.5002ZM0.000244141 93.5C13.434 93.5 26.2159 102.294 35.8452 117.822C45.437 133.29 51.5002 154.909 51.5002 179H59.5002C59.5002 153.661 53.1394 130.531 42.6441 113.606C32.1864 96.7416 17.2183 85.5 0.000244141 85.5V93.5Z" fill="black" mask="url(#path-1-inside-1_58_95)"/>
</svg>
