<svg width="87" height="140" viewBox="0 0 87 140" fill="none" xmlns="http://www.w3.org/2000/svg">
<mask id="path-1-inside-1_41_247" fill="white">
<path fill-rule="evenodd" clip-rule="evenodd" d="M0 70C23.9735 70 43.4078 38.6599 43.4078 0C43.4078 38.6599 62.8422 70 86.8156 70C62.8422 70 43.4078 101.34 43.4078 140C43.4078 101.34 23.9735 70 0 70Z"/>
</mask>
<path fill-rule="evenodd" clip-rule="evenodd" d="M0 70C23.9735 70 43.4078 38.6599 43.4078 0C43.4078 38.6599 62.8422 70 86.8156 70C62.8422 70 43.4078 101.34 43.4078 140C43.4078 101.34 23.9735 70 0 70Z" fill="black"/>
<path d="M40.4078 0C40.4078 18.862 35.6608 35.7953 28.1444 47.9165C20.5998 60.083 10.5676 67 0 67V73C13.4058 73 25.0776 64.247 33.2435 51.0785C41.4376 37.8646 46.4078 19.7979 46.4078 0H40.4078ZM86.8156 67C76.248 67 66.2159 60.083 58.6713 47.9165C51.1548 35.7953 46.4078 18.862 46.4078 0H40.4078C40.4078 19.7979 45.378 37.8646 53.5721 51.0785C61.738 64.247 73.4098 73 86.8156 73V67ZM46.4078 140C46.4078 121.138 51.1548 104.205 58.6713 92.0835C66.2159 79.917 76.248 73 86.8156 73V67C73.4098 67 61.738 75.753 53.5721 88.9215C45.378 102.135 40.4078 120.202 40.4078 140H46.4078ZM0 73C10.5676 73 20.5998 79.917 28.1444 92.0835C35.6608 104.205 40.4078 121.138 40.4078 140H46.4078C46.4078 120.202 41.4376 102.135 33.2435 88.9215C25.0776 75.753 13.4058 67 0 67V73Z" fill="black" mask="url(#path-1-inside-1_41_247)"/>
</svg>
