<svg width="237" height="318" viewBox="0 0 237 318" fill="none" xmlns="http://www.w3.org/2000/svg">
<path fill-rule="evenodd" clip-rule="evenodd" d="M0 159C65.4457 159 118.5 87.8133 118.5 0C118.5 87.8133 171.554 159 237 159C171.554 159 118.5 230.187 118.5 318C118.5 230.187 65.4457 159 0 159Z" fill="#E5EBED"/>
<path d="M117 0C117 43.6157 103.822 83.0438 82.5894 111.534C61.3566 140.023 32.1408 157.5 0 157.5V160.5C33.305 160.5 63.3392 142.383 84.9949 113.326C106.65 84.2695 120 44.1976 120 0H117ZM237 157.5C204.859 157.5 175.643 140.023 154.411 111.534C133.178 83.0438 120 43.6157 120 0H117C117 44.1976 130.35 84.2695 152.005 113.326C173.661 142.383 203.695 160.5 237 160.5V157.5ZM120 318C120 274.384 133.178 234.956 154.411 206.466C175.643 177.977 204.859 160.5 237 160.5V157.5C203.695 157.5 173.661 175.617 152.005 204.674C130.35 233.731 117 273.802 117 318H120ZM0 160.5C32.1408 160.5 61.3566 177.977 82.5894 206.466C103.822 234.956 117 274.384 117 318H120C120 273.802 106.65 233.731 84.9949 204.674C63.3392 175.617 33.305 157.5 0 157.5V160.5Z" fill="#333333"/>
</svg>
