<svg width="65" height="90" viewBox="0 0 65 90" fill="none" xmlns="http://www.w3.org/2000/svg">
<path fill-rule="evenodd" clip-rule="evenodd" d="M0 45C17.9493 45 32.5 24.8528 32.5 0C32.5 24.8528 47.0507 45 65 45C47.0507 45 32.5 65.1472 32.5 90C32.5 65.1472 17.9493 45 0 45Z" fill="#F0EAE0"/>
<path d="M31 0C31 12.1462 27.4422 23.0808 21.765 30.9416C16.0863 38.8043 8.37186 43.5 0 43.5V46.5C9.5774 46.5 18.1129 41.1221 24.197 32.698C30.2825 24.272 34 12.7067 34 0H31ZM65 43.5C56.6281 43.5 48.9137 38.8043 43.2351 30.9416C37.5578 23.0808 34 12.1462 34 0H31C31 12.7067 34.7175 24.272 40.803 32.698C46.8871 41.1221 55.4226 46.5 65 46.5V43.5ZM34 90C34 77.8539 37.5578 66.9192 43.2351 59.0584C48.9137 51.1957 56.6281 46.5 65 46.5V43.5C55.4226 43.5 46.8871 48.8779 40.803 57.302C34.7175 65.728 31 77.2933 31 90H34ZM0 46.5C8.37186 46.5 16.0863 51.1957 21.765 59.0584C27.4422 66.9192 31 77.8539 31 90H34C34 77.2933 30.2825 65.728 24.197 57.302C18.1129 48.8779 9.5774 43.5 0 43.5V46.5Z" fill="#333333"/>
</svg>
