<svg width="419" height="124" viewBox="0 0 419 124" fill="none" xmlns="http://www.w3.org/2000/svg">
<path d="M394.953 38.5068C370.655 18.7507 336.423 12.2535 301.615 8.18302C243.631 1.4025 181.378 2.722 124.378 13.1906C98.6352 17.9184 73.8461 25.4988 51.8647 36.615C40.8818 42.1691 25.7924 51.648 27.5189 62.9327C29.5402 76.1442 51.0302 86.756 64.9739 92.5887C100.193 107.321 141.925 112.557 181.459 116.57C220.168 120.498 259.331 121.225 298.169 117.849C332.518 114.863 373.252 110.639 401.657 94.4527C436.466 74.6174 395.06 54.1753 369.596 45.0444C297.62 19.2361 213.712 10.909 134.565 13.441C70.0876 15.5037 15.514 24.7703 4 45.0444" stroke="#D06400" stroke-width="7" stroke-linecap="round"/>
</svg>
