<svg width="366" height="137" viewBox="0 0 366 137" fill="none" xmlns="http://www.w3.org/2000/svg">
<path d="M344.538 42.3739C323.373 20.4038 293.556 13.1784 263.236 8.65181C212.73 1.11141 158.504 2.57877 108.854 14.2206C86.4317 19.4783 64.8392 27.9082 45.6923 40.2701C36.1257 46.4467 22.9822 56.9879 24.4861 69.5372C26.2467 84.2293 44.9655 96.0304 57.1111 102.517C87.7886 118.9 124.139 124.723 158.575 129.185C192.292 133.554 226.405 134.363 260.235 130.608C290.154 127.288 325.635 122.59 350.378 104.59C380.698 82.5314 344.632 59.7984 322.451 49.6442C259.757 20.9436 186.669 11.6833 117.728 14.499C61.5654 16.7929 14.0292 27.098 4 49.6442" stroke="#D06400" stroke-width="7" stroke-linecap="round"/>
</svg>
