<svg width="551" height="124" viewBox="0 0 551 124" fill="none" xmlns="http://www.w3.org/2000/svg">
<path d="M520.514 38.5068C488.413 18.7507 443.187 12.2535 397.199 8.18302C320.593 1.4025 238.346 2.722 163.039 13.1906C129.029 17.9184 96.2785 25.4988 67.2373 36.615C52.727 42.1691 32.7915 51.648 35.0724 62.9327C37.7429 76.1442 66.1348 86.756 84.5568 92.5887C131.087 107.321 186.222 112.557 238.453 116.57C289.594 120.498 341.335 121.225 392.647 117.849C438.027 114.863 491.844 110.639 529.372 94.4527C575.36 74.6174 520.656 54.1753 487.013 45.0444C391.922 19.2361 281.065 10.909 176.499 13.441C91.3128 15.5037 19.2119 24.7703 4 45.0444" stroke="#D06400" stroke-width="7" stroke-linecap="round"/>
</svg>
