<svg width="634" height="124" viewBox="0 0 634 124" fill="none" xmlns="http://www.w3.org/2000/svg">
<path d="M599.466 38.5068C562.457 18.7507 510.318 12.2535 457.301 8.18302C368.986 1.4025 274.167 2.722 187.349 13.1906C148.14 17.9184 110.384 25.4988 76.9034 36.615C60.1751 42.1691 37.1924 51.648 39.822 62.9327C42.9006 76.1442 75.6324 86.756 96.8703 92.5887C150.513 107.321 214.076 112.557 274.29 116.57C333.248 120.498 392.898 121.225 452.053 117.849C504.37 114.863 566.413 110.639 609.677 94.4527C662.695 74.6174 599.63 54.1753 560.844 45.0444C451.217 19.2361 323.415 10.909 202.866 13.441C104.659 15.5037 21.5372 24.7703 4 45.0444" stroke="#D06400" stroke-width="7" stroke-linecap="round"/>
</svg>
