<svg width="99" height="110" viewBox="0 0 99 110" fill="none" xmlns="http://www.w3.org/2000/svg">
<path fill-rule="evenodd" clip-rule="evenodd" d="M2 55C28.2335 55 49.5 31.2711 49.5 2C49.5 31.2711 70.7665 55 97 55C70.7665 55 49.5 78.7289 49.5 108C49.5 78.7289 28.2335 55 2 55Z" fill="#F0EAE0"/>
<path d="M51 2C51 1.17157 50.3284 0.5 49.5 0.5C48.6716 0.5 48 1.17157 48 2H51ZM2 53.5C1.17157 53.5 0.5 54.1716 0.5 55C0.5 55.8284 1.17157 56.5 2 56.5V53.5ZM97 56.5C97.8284 56.5 98.5 55.8284 98.5 55C98.5 54.1716 97.8284 53.5 97 53.5V56.5ZM48 108C48 108.828 48.6716 109.5 49.5 109.5C50.3284 109.5 51 108.828 51 108H48ZM48 2C48 30.6015 27.2548 53.5 2 53.5V56.5C29.2123 56.5 51 31.9407 51 2H48ZM97 53.5C71.7452 53.5 51 30.6015 51 2H48C48 31.9407 69.7877 56.5 97 56.5V53.5ZM51 108C51 79.3986 71.7452 56.5 97 56.5V53.5C69.7877 53.5 48 78.0593 48 108H51ZM2 56.5C27.2548 56.5 48 79.3986 48 108H51C51 78.0593 29.2123 53.5 2 53.5V56.5Z" fill="black"/>
</svg>
